<svg xmlns="http://www.w3.org/2000/svg" viewBox="0 0 1166.92 1166.92"><defs><style>.cls-1{fill:#fff;}.cls-2,.cls-4,.cls-9{fill:#2b2335;}.cls-3{fill:#d16635;}.cls-4{font-size:115.74px;}.cls-4,.cls-9{font-family:Luthier-Bold, Luthier;font-weight:700;}.cls-5{letter-spacing:-0.02em;}.cls-6{letter-spacing:-0.03em;}.cls-7{letter-spacing:-0.04em;}.cls-8{letter-spacing:0em;}.cls-9{font-size:121.7px;}.cls-10{letter-spacing:-0.03em;}.cls-11{letter-spacing:-0.05em;}.cls-12{letter-spacing:0em;}.cls-13{letter-spacing:-0.02em;}.cls-14{letter-spacing:-0.04em;}</style></defs><g id="Layer_2" data-name="Layer 2"><g id="Layer_1-2" data-name="Layer 1"><path class="cls-1" d="M583.46,1166.42A583.11,583.11,0,0,1,356.54,46.31a583.11,583.11,0,0,1,453.83,1074.3A579.44,579.44,0,0,1,583.46,1166.42Z"/><path class="cls-2" d="M583.46,1a579.76,579.76,0,0,1,325.66,99.47,584.34,584.34,0,0,1,211,256.27,581.64,581.64,0,0,1-53.71,552.38,584.26,584.26,0,0,1-256.26,211,581.64,581.64,0,0,1-552.38-53.71,584,584,0,0,1-211-256.26,581.72,581.72,0,0,1,53.7-552.38,584.12,584.12,0,0,1,256.27-211A578.87,578.87,0,0,1,583.46,1m0-1C261.22,0,0,261.22,0,583.46s261.22,583.46,583.46,583.46,583.46-261.23,583.46-583.46S905.69,0,583.46,0Z"/><path class="cls-1" d="M590.82,1123.07a539.76,539.76,0,0,1-210-1036.82,539.75,539.75,0,0,1,420.08,994.41A536.24,536.24,0,0,1,590.82,1123.07Z"/><path d="M590.82,44.42A536.47,536.47,0,0,1,892.2,136.48a540.66,540.66,0,0,1,195.3,237.16,538.35,538.35,0,0,1-49.7,511.2,540.49,540.49,0,0,1-237.16,195.29,538.39,538.39,0,0,1-511.2-49.69A540.59,540.59,0,0,1,94.14,793.27a538.29,538.29,0,0,1,49.7-511.19A540.66,540.66,0,0,1,381,86.78,535.66,535.66,0,0,1,590.82,44.42m0-1.14c-298.33,0-540.18,241.85-540.18,540.18s241.85,540.18,540.18,540.18S1131,881.79,1131,583.46,889.15,43.28,590.82,43.28Z"/><rect class="cls-3" x="330.2" y="849.59" width="205.17" height="6.41"/><rect class="cls-3" x="503.31" y="888.06" width="205.17" height="6.41"/><rect class="cls-3" x="439.2" y="875.24" width="205.17" height="6.41"/><rect class="cls-3" x="362.26" y="862.42" width="205.17" height="6.41"/><rect class="cls-3" x="567.43" y="900.89" width="205.17" height="6.41"/><rect class="cls-3" x="631.54" y="913.71" width="205.17" height="6.41"/><text class="cls-4" transform="translate(197.96 542.21) scale(1.31 1)">EL M<tspan class="cls-5" x="284.14" y="0">E</tspan><tspan class="cls-6" x="355.44" y="0">S</tspan><tspan class="cls-7" x="423.26" y="0">O</tspan><tspan class="cls-8" x="503.93" y="0">N</tspan></text><text class="cls-9" transform="translate(311.58 684.93) scale(0.99 1)">C<tspan class="cls-10" x="79.83" y="0">A</tspan><tspan class="cls-11" x="169.16" y="0">N</tspan><tspan class="cls-12" x="255.57" y="0">A</tspan><tspan class="cls-13" x="348.42" y="0">R</tspan><tspan class="cls-14" x="429.72" y="0">I</tspan><tspan x="469.27" y="0">O</tspan></text><path class="cls-2" d="M661.31,259.34,647.64,246a3.31,3.31,0,0,0-4.22,0l-13.67,13.35a1.92,1.92,0,0,0-.38,2.38,2.82,2.82,0,0,0,2.48,1.27h4.35c-4.05,13.43-18.71,23.77-37.18,26.18V231.84h24.63a2.52,2.52,0,0,0,2.73-2.23v-8.9a2.51,2.51,0,0,0-2.73-2.22H599v-5.75c9.72-3.19,15.28-11.54,13.28-19.9s-11-14.4-21.48-14.4-19.48,6-21.48,14.4,3.56,16.71,13.27,19.9v5.75H558a2.52,2.52,0,0,0-2.74,2.22v8.9a2.53,2.53,0,0,0,2.74,2.23h24.62v57.33c-18.46-2.41-33.13-12.75-37.18-26.18h4.35a2.83,2.83,0,0,0,2.49-1.27,1.92,1.92,0,0,0-.38-2.38L538.21,246a3.3,3.3,0,0,0-4.21,0l-13.68,13.35a1.9,1.9,0,0,0-.37,2.38,2.82,2.82,0,0,0,2.48,1.27h6.1c4,20.7,26.18,37,54.08,39.66v2.63a2.13,2.13,0,0,0,.79,1.58l5.48,4.45a3.24,3.24,0,0,0,3.88,0l5.47-4.45a2.07,2.07,0,0,0,.79-1.58v-2.63c27.91-2.69,50.09-19,54.09-39.66h6.1a2.82,2.82,0,0,0,2.48-1.27A1.92,1.92,0,0,0,661.31,259.34Zm-70.49-56.43c-4.53,0-8.21-3-8.21-6.68s3.68-6.67,8.21-6.67,8.2,3,8.2,6.67S595.35,202.91,590.82,202.91Z"/></g></g></svg>
