<svg xmlns="http://www.w3.org/2000/svg" viewBox="0 0 181.44 227.01"><defs><style>.cls-1{font-size:22.41px;}.cls-1,.cls-18{font-family:MyriadPro-Regular, Myriad Pro;}.cls-2{letter-spacing:-0.08em;}.cls-3{letter-spacing:-0.04em;}.cls-4{letter-spacing:-0.07em;}.cls-5{letter-spacing:-0.08em;}.cls-13,.cls-6,.cls-9{fill:#fff;}.cls-7{fill:#2b2335;}.cls-8{fill:#d16635;}.cls-9{font-size:18px;}.cls-13,.cls-9{font-family:Luthier-Bold, Luthier;font-weight:700;}.cls-10{letter-spacing:-0.02em;}.cls-11{letter-spacing:-0.03em;}.cls-12{letter-spacing:-0.04em;}.cls-13{font-size:18.92px;}.cls-14{letter-spacing:-0.03em;}.cls-15{letter-spacing:-0.05em;}.cls-16{letter-spacing:-0.02em;}.cls-17{letter-spacing:-0.04em;}.cls-18{font-size:17.09px;}.cls-19{letter-spacing:-0.08em;}.cls-20{letter-spacing:-0.03em;}.cls-21{letter-spacing:0em;}</style></defs><g id="Layer_2" data-name="Layer 2"><g id="Layer_1-2" data-name="Layer 1"><text class="cls-1" transform="translate(9.85 221.41) scale(1.12 1)"><tspan class="cls-2">P</tspan><tspan x="10.04" y="0">AELLA -</tspan><tspan class="cls-3" x="81.29" y="0"> </tspan><tspan class="cls-4" x="85.12" y="0">T</tspan><tspan x="94.58" y="0">A</tspan><tspan class="cls-5" x="108.29" y="0">P</tspan><tspan x="118.33" y="0">AS </tspan></text><circle class="cls-6" cx="90.72" cy="90.72" r="90.22" transform="translate(-18.42 158.17) rotate(-76.72)"/><path class="cls-7" d="M90.72,1A89.72,89.72,0,1,1,1,90.72,89.82,89.82,0,0,1,90.72,1m0-1a90.72,90.72,0,1,0,90.72,90.72A90.72,90.72,0,0,0,90.72,0Z"/><circle class="cls-7" cx="91.86" cy="90.72" r="83.42"/><path d="M91.86,7.87A82.85,82.85,0,1,1,9,90.72,82.95,82.95,0,0,1,91.86,7.87m0-1.14a84,84,0,1,0,84,84,84,84,0,0,0-84-84Z"/><rect class="cls-8" x="51.34" y="132.1" width="31.9" height="1"/><rect class="cls-8" x="78.26" y="138.08" width="31.9" height="1"/><rect class="cls-8" x="68.29" y="136.09" width="31.9" height="1"/><rect class="cls-8" x="56.32" y="134.09" width="31.9" height="1"/><rect class="cls-8" x="88.23" y="140.07" width="31.9" height="1"/><rect class="cls-8" x="98.19" y="142.07" width="31.9" height="1"/><text class="cls-9" transform="translate(30.78 84.3) scale(1.31 1)">EL M<tspan class="cls-10" x="44.18" y="0">E</tspan><tspan class="cls-11" x="55.26" y="0">S</tspan><tspan class="cls-12" x="65.81" y="0">O</tspan><tspan x="78.35" y="0">N</tspan></text><text class="cls-13" transform="translate(48.45 106.49) scale(0.99 1)">C<tspan class="cls-14" x="12.41" y="0">A</tspan><tspan class="cls-15" x="26.3" y="0">N</tspan><tspan x="39.74" y="0">A</tspan><tspan class="cls-16" x="54.17" y="0">R</tspan><tspan class="cls-17" x="66.81" y="0">I</tspan><tspan x="72.96" y="0">O</tspan></text><path class="cls-6" d="M102.82,40.32l-2.12-2.07a.5.5,0,0,0-.33-.12.48.48,0,0,0-.33.12l-2.12,2.07a.29.29,0,0,0-.06.37.44.44,0,0,0,.38.2h.68C98.29,43,96,44.59,93.14,45V36.05H97a.39.39,0,0,0,.42-.35V34.32A.39.39,0,0,0,97,34H93.14v-.89A2.72,2.72,0,0,0,95.2,30a3.61,3.61,0,0,0-6.68,0,2.72,2.72,0,0,0,2.07,3.1V34H86.76a.4.4,0,0,0-.43.35V35.7a.4.4,0,0,0,.43.35h3.83V45c-2.87-.37-5.15-2-5.78-4.07h.67a.45.45,0,0,0,.39-.2.29.29,0,0,0-.06-.37l-2.13-2.07a.45.45,0,0,0-.32-.12.46.46,0,0,0-.33.12L80.9,40.32a.31.31,0,0,0-.06.37.45.45,0,0,0,.39.2h1c.62,3.22,4.07,5.75,8.41,6.17v.41a.3.3,0,0,0,.12.24l.85.69a.48.48,0,0,0,.6,0l.86-.69a.33.33,0,0,0,.12-.24v-.41c4.34-.42,7.79-3,8.41-6.17h1a.44.44,0,0,0,.38-.2A.29.29,0,0,0,102.82,40.32Zm-11-8.77a1.06,1.06,0,1,1,1.28-1A1.18,1.18,0,0,1,91.86,31.55Z"/><text class="cls-18" transform="translate(43.83 200.18)">RES<tspan class="cls-19" x="26.03" y="0">T</tspan><tspan class="cls-20" x="33.24" y="0">A</tspan><tspan x="43.23" y="0">U</tspan><tspan class="cls-21" x="54.28" y="0">R</tspan><tspan x="63.56" y="0">ANT</tspan></text><rect class="cls-8" x="149.31" y="192.23" width="31.9" height="1"/><rect class="cls-8" x="2.28" y="193.23" width="31.9" height="1"/></g></g></svg>
