<svg xmlns="http://www.w3.org/2000/svg" width="16.794" height="16.794" viewBox="0 0 16.794 16.794">
  <path id="Icon_awesome-download" data-name="Icon awesome-download" d="M7.085,0H9.709A.785.785,0,0,1,10.5.787V6.3h2.877a.655.655,0,0,1,.463,1.119L8.847,12.409a.636.636,0,0,1-.9,0l-5-4.992A.655.655,0,0,1,3.418,6.3H6.3V.787A.785.785,0,0,1,7.085,0Zm9.709,12.333v3.674a.785.785,0,0,1-.787.787H.787A.785.785,0,0,1,0,16.007V12.333a.785.785,0,0,1,.787-.787H5.6l1.607,1.607a1.681,1.681,0,0,0,2.381,0L11.2,11.546h4.812A.785.785,0,0,1,16.794,12.333ZM12.727,15.22a.656.656,0,1,0-.656.656A.658.658,0,0,0,12.727,15.22Zm2.1,0a.656.656,0,1,0-.656.656A.658.658,0,0,0,14.826,15.22Z" fill="#ecc351"/>
</svg>
